<?xml version="1.0" encoding="UTF-8"?>
<svg xmlns="http://www.w3.org/2000/svg"
     viewBox="0 0 1173 328"
     width="1173" height="328"
     role="img" aria-labelledby="logo-title logo-desc"
     preserveAspectRatio="xMidYMid meet">
  <title id="logo-title">Schwan logo</title>
  <desc id="logo-desc">A stylized swan symbol followed by the word Schwan.</desc>
  <g fill="currentColor" color="#080b10" fill-rule="evenodd" clip-rule="evenodd">
    <path d="M 1047 145 L 1047 270 L 1064 270 L 1065 271 L 1065 178 L 1064 177 L 1064 174 L 1065 173 L 1068 176 L 1068 177 L 1070 179 L 1070 180 L 1072 182 L 1074 186 L 1080 193 L 1082 197 L 1085 200 L 1085 201 L 1090 207 L 1092 211 L 1095 214 L 1097 218 L 1106 229 L 1108 233 L 1111 236 L 1113 240 L 1116 243 L 1118 247 L 1124 254 L 1124 255 L 1129 261 L 1129 262 L 1134 268 L 1134 269 L 1135 270 L 1152 270 L 1153 271 L 1154 270 L 1153 269 L 1153 145 L 1136 145 L 1137 146 L 1137 234 L 1138 235 L 1137 237 L 1136 237 L 1135 235 L 1132 232 L 1132 231 L 1130 229 L 1130 228 L 1128 226 L 1126 222 L 1123 219 L 1123 218 L 1117 211 L 1115 207 L 1112 204 L 1110 200 L 1104 193 L 1104 192 L 1102 190 L 1100 186 L 1097 183 L 1095 179 L 1089 172 L 1089 171 L 1087 169 L 1085 165 L 1079 158 L 1079 157 L 1074 151 L 1072 147 L 1070 145 Z
      M 956 145 L 953 151 L 953 153 L 951 156 L 951 158 L 949 161 L 948 166 L 946 169 L 946 171 L 944 174 L 944 176 L 940 184 L 939 189 L 937 192 L 937 194 L 935 197 L 935 199 L 931 207 L 930 212 L 928 215 L 928 217 L 926 220 L 926 222 L 922 230 L 921 235 L 919 238 L 919 240 L 917 243 L 917 245 L 915 248 L 914 253 L 912 256 L 912 258 L 910 261 L 910 263 L 908 266 L 908 268 L 907 270 L 925 270 L 926 271 L 927 270 L 927 268 L 928 267 L 928 265 L 929 264 L 930 259 L 932 256 L 932 254 L 933 253 L 933 251 L 934 250 L 934 248 L 935 247 L 935 245 L 936 244 L 937 239 L 939 236 L 993 236 L 996 241 L 996 243 L 998 246 L 998 248 L 1001 253 L 1002 258 L 1004 261 L 1004 263 L 1006 266 L 1006 268 L 1007 270 L 1029 270 L 1027 266 L 1027 264 L 1025 261 L 1025 259 L 1023 256 L 1023 254 L 1021 251 L 1021 249 L 1019 246 L 1019 244 L 1016 239 L 1016 237 L 1014 234 L 1014 232 L 1011 227 L 1011 225 L 1009 222 L 1009 220 L 1007 217 L 1007 215 L 1005 212 L 1005 210 L 1002 205 L 1002 203 L 1000 200 L 1000 198 L 998 195 L 998 193 L 995 188 L 994 183 L 991 178 L 991 176 L 989 173 L 989 171 L 987 168 L 987 166 L 985 163 L 985 161 L 983 158 L 983 156 L 980 151 L 980 149 L 978 145 Z
      M 964 163 L 966 165 L 966 167 L 969 173 L 970 178 L 973 183 L 974 188 L 976 191 L 976 193 L 978 196 L 978 198 L 982 206 L 983 211 L 987 219 L 987 221 L 988 222 L 988 224 L 987 225 L 986 224 L 984 224 L 983 225 L 982 224 L 945 224 L 944 225 L 942 224 L 943 222 L 943 220 L 945 217 L 946 212 L 948 209 L 948 207 L 949 206 L 949 204 L 950 203 L 951 198 L 953 195 L 953 193 L 954 192 L 954 190 L 955 189 L 955 187 L 956 186 L 957 181 L 959 178 L 959 176 L 960 175 L 960 173 L 961 172 L 961 170 L 962 169 L 963 164 Z
      M 729 145 L 730 146 L 730 148 L 732 152 L 732 155 L 733 156 L 733 158 L 734 159 L 734 162 L 735 163 L 735 165 L 737 169 L 737 172 L 738 173 L 738 175 L 740 179 L 740 182 L 741 183 L 741 185 L 743 189 L 743 192 L 744 193 L 744 195 L 746 199 L 746 202 L 748 206 L 748 209 L 750 213 L 750 216 L 751 217 L 751 219 L 752 220 L 752 222 L 754 226 L 754 229 L 755 230 L 755 232 L 757 236 L 757 239 L 758 240 L 758 242 L 759 243 L 759 245 L 761 249 L 761 252 L 762 253 L 762 255 L 764 259 L 764 262 L 765 263 L 765 265 L 766 266 L 766 268 L 767 270 L 789 270 L 791 271 L 792 269 L 792 266 L 793 265 L 793 262 L 795 258 L 796 251 L 798 247 L 799 240 L 800 239 L 800 237 L 801 236 L 801 233 L 803 229 L 804 222 L 806 218 L 807 211 L 809 207 L 809 204 L 810 203 L 811 196 L 812 195 L 812 193 L 814 189 L 814 185 L 815 184 L 816 177 L 817 176 L 819 178 L 819 181 L 820 182 L 820 184 L 821 185 L 821 187 L 823 191 L 823 194 L 825 197 L 825 199 L 826 200 L 827 205 L 829 208 L 829 210 L 830 211 L 830 213 L 831 214 L 831 216 L 832 217 L 832 219 L 833 220 L 834 225 L 836 228 L 837 233 L 839 236 L 839 238 L 840 239 L 841 244 L 843 247 L 843 249 L 844 250 L 844 252 L 845 253 L 846 258 L 848 261 L 848 263 L 849 264 L 849 266 L 851 270 L 871 270 L 872 271 L 874 268 L 874 265 L 875 264 L 875 261 L 876 260 L 876 258 L 878 254 L 878 251 L 880 247 L 880 244 L 882 240 L 882 237 L 884 233 L 884 230 L 886 226 L 886 223 L 888 219 L 888 216 L 890 212 L 890 209 L 892 205 L 892 202 L 894 198 L 894 195 L 896 191 L 896 188 L 898 184 L 898 181 L 899 180 L 899 177 L 900 176 L 900 174 L 901 173 L 901 170 L 903 166 L 903 163 L 905 159 L 905 156 L 907 152 L 907 149 L 909 145 L 891 145 L 890 152 L 888 156 L 888 159 L 886 163 L 885 170 L 883 174 L 883 177 L 881 181 L 880 188 L 878 192 L 877 199 L 875 203 L 875 206 L 873 210 L 872 217 L 870 221 L 869 228 L 867 232 L 867 235 L 866 236 L 865 243 L 863 246 L 862 245 L 862 242 L 860 239 L 860 237 L 859 236 L 859 233 L 858 232 L 857 227 L 855 224 L 855 222 L 854 221 L 854 219 L 853 218 L 853 216 L 852 215 L 851 210 L 849 207 L 849 205 L 848 204 L 848 202 L 847 201 L 847 199 L 846 198 L 846 196 L 845 195 L 844 190 L 842 187 L 842 185 L 841 184 L 841 182 L 840 181 L 840 179 L 839 178 L 838 173 L 836 170 L 836 168 L 835 167 L 835 165 L 834 164 L 834 162 L 833 161 L 833 159 L 832 158 L 832 156 L 831 155 L 831 153 L 830 152 L 830 150 L 829 149 L 829 147 L 828 145 L 811 145 L 811 148 L 809 152 L 809 155 L 808 156 L 808 158 L 806 162 L 806 165 L 805 166 L 805 168 L 803 172 L 803 175 L 802 176 L 802 178 L 801 179 L 801 182 L 800 183 L 800 185 L 798 189 L 798 192 L 797 193 L 797 195 L 796 196 L 796 199 L 795 200 L 795 202 L 793 206 L 793 209 L 791 213 L 791 216 L 789 220 L 789 223 L 788 224 L 788 226 L 786 230 L 786 233 L 785 234 L 785 237 L 784 238 L 784 241 L 783 242 L 783 245 L 782 246 L 780 244 L 779 237 L 778 236 L 778 234 L 777 233 L 777 230 L 776 229 L 776 227 L 774 223 L 774 220 L 773 219 L 773 217 L 772 216 L 772 213 L 771 212 L 771 210 L 769 206 L 769 203 L 768 202 L 768 200 L 766 196 L 766 193 L 765 192 L 765 190 L 764 189 L 764 187 L 762 183 L 762 180 L 760 176 L 760 173 L 758 169 L 758 166 L 757 165 L 757 163 L 755 159 L 755 156 L 753 152 L 752 145 Z
      M 608 145 L 608 270 L 628 270 L 628 213 L 629 212 L 691 212 L 692 213 L 692 270 L 711 270 L 712 271 L 712 145 L 692 145 L 692 198 L 691 199 L 629 199 L 628 198 L 628 145 Z
      M 518 146 L 513 149 L 511 149 L 507 151 L 505 153 L 501 155 L 498 158 L 497 158 L 490 165 L 490 166 L 487 169 L 487 170 L 485 172 L 480 182 L 480 184 L 478 188 L 478 191 L 477 192 L 477 196 L 476 197 L 476 218 L 477 219 L 477 224 L 478 225 L 478 228 L 479 229 L 480 234 L 482 237 L 482 239 L 484 241 L 485 244 L 490 250 L 490 251 L 496 257 L 497 257 L 500 260 L 501 260 L 506 264 L 512 267 L 514 267 L 515 268 L 517 268 L 521 270 L 525 270 L 526 271 L 532 271 L 533 272 L 552 272 L 553 271 L 560 271 L 561 270 L 565 270 L 566 269 L 568 269 L 569 268 L 574 267 L 577 265 L 579 265 L 581 263 L 584 262 L 586 260 L 586 256 L 585 255 L 585 251 L 584 250 L 584 247 L 581 248 L 579 250 L 571 254 L 569 254 L 565 256 L 562 256 L 561 257 L 557 257 L 556 258 L 536 258 L 535 257 L 532 257 L 531 256 L 526 255 L 520 252 L 518 250 L 517 250 L 510 243 L 510 242 L 507 239 L 503 231 L 503 229 L 501 225 L 501 222 L 500 221 L 500 215 L 499 214 L 499 201 L 500 200 L 500 194 L 501 193 L 501 190 L 502 189 L 503 184 L 507 176 L 509 174 L 509 173 L 519 163 L 520 163 L 522 161 L 528 158 L 530 158 L 531 157 L 534 157 L 535 156 L 540 156 L 541 155 L 551 155 L 552 156 L 557 156 L 561 158 L 564 158 L 569 161 L 571 161 L 573 162 L 575 164 L 576 164 L 578 166 L 582 168 L 582 164 L 583 163 L 583 160 L 584 159 L 584 156 L 585 155 L 584 153 L 572 147 L 570 147 L 566 145 L 563 145 L 562 144 L 556 144 L 555 143 L 531 143 L 530 144 L 526 144 L 525 145 L 521 145 L 520 146 Z
      M 405 143 L 404 144 L 401 144 L 400 145 L 397 145 L 396 146 L 391 147 L 387 149 L 385 151 L 384 151 L 377 157 L 377 158 L 375 160 L 375 161 L 372 165 L 372 167 L 371 168 L 371 171 L 370 172 L 370 184 L 371 185 L 371 188 L 374 194 L 377 197 L 377 198 L 388 206 L 392 208 L 394 208 L 397 210 L 399 210 L 402 212 L 404 212 L 405 213 L 407 213 L 408 214 L 410 214 L 411 215 L 413 215 L 414 216 L 416 216 L 417 217 L 422 218 L 425 220 L 427 220 L 429 222 L 433 224 L 437 228 L 439 232 L 439 235 L 440 236 L 440 240 L 439 241 L 438 246 L 432 253 L 431 253 L 427 256 L 425 256 L 424 257 L 421 257 L 420 258 L 404 258 L 403 257 L 398 257 L 397 256 L 395 256 L 394 255 L 389 254 L 381 250 L 373 244 L 373 246 L 371 250 L 371 253 L 370 254 L 369 259 L 374 263 L 380 266 L 382 266 L 385 268 L 387 268 L 388 269 L 391 269 L 392 270 L 396 270 L 397 271 L 403 271 L 404 272 L 420 272 L 421 271 L 427 271 L 428 270 L 431 270 L 432 269 L 437 268 L 445 264 L 447 262 L 448 262 L 456 254 L 460 246 L 460 243 L 461 242 L 461 226 L 460 225 L 460 223 L 458 219 L 456 217 L 456 216 L 448 208 L 447 208 L 445 206 L 433 200 L 431 200 L 428 198 L 426 198 L 425 197 L 420 196 L 417 194 L 412 193 L 409 191 L 407 191 L 403 189 L 401 187 L 400 187 L 394 181 L 392 177 L 392 169 L 394 165 L 400 159 L 402 158 L 404 158 L 407 156 L 411 156 L 412 155 L 422 155 L 423 156 L 427 156 L 428 157 L 431 157 L 437 160 L 439 160 L 443 163 L 446 164 L 448 166 L 451 167 L 452 165 L 452 163 L 453 162 L 453 159 L 454 158 L 454 155 L 455 153 L 453 151 L 445 147 L 442 147 L 441 146 L 439 146 L 438 145 L 435 145 L 434 144 L 430 144 L 429 143 Z
      M 291 57 L 290 58 L 290 72 L 288 75 L 288 77 L 284 81 L 292 87 L 308 95 L 310 97 L 315 99 L 320 103 L 323 104 L 328 108 L 331 109 L 329 102 L 325 98 L 325 97 L 324 97 L 311 84 L 311 83 L 307 78 L 305 74 L 305 72 L 304 71 L 304 69 L 303 68 L 303 66 L 302 64 L 300 63 L 297 60 Z
      M 287 27 L 286 27 L 284 25 L 283 25 L 281 23 L 277 21 L 274 21 L 270 19 L 263 19 L 262 18 L 257 18 L 256 19 L 247 19 L 246 20 L 243 20 L 242 21 L 239 21 L 238 22 L 236 22 L 226 27 L 224 29 L 223 29 L 220 32 L 219 32 L 212 39 L 212 40 L 209 43 L 204 53 L 204 55 L 203 56 L 203 59 L 202 60 L 202 64 L 201 65 L 201 85 L 202 86 L 202 90 L 203 91 L 204 98 L 207 104 L 207 106 L 210 111 L 210 113 L 212 115 L 214 120 L 216 122 L 217 125 L 219 127 L 221 131 L 224 134 L 224 135 L 227 138 L 227 139 L 231 143 L 231 144 L 235 148 L 235 149 L 239 153 L 239 154 L 243 158 L 243 159 L 247 163 L 247 164 L 250 167 L 250 168 L 252 170 L 252 171 L 260 182 L 269 200 L 269 202 L 270 203 L 270 206 L 271 207 L 271 210 L 272 211 L 272 227 L 271 228 L 271 231 L 268 237 L 268 239 L 266 241 L 264 245 L 256 253 L 246 258 L 242 258 L 241 259 L 231 259 L 230 258 L 227 258 L 221 255 L 219 253 L 218 253 L 213 248 L 210 242 L 210 240 L 209 239 L 209 225 L 210 224 L 211 219 L 213 217 L 213 216 L 221 208 L 222 208 L 224 206 L 230 203 L 232 203 L 233 202 L 236 202 L 237 201 L 241 201 L 242 200 L 252 200 L 253 201 L 255 201 L 255 199 L 251 191 L 244 183 L 244 182 L 227 165 L 226 165 L 215 155 L 214 155 L 203 146 L 199 144 L 196 141 L 195 141 L 193 139 L 192 139 L 181 131 L 178 130 L 173 126 L 170 125 L 165 121 L 151 114 L 149 112 L 131 103 L 129 103 L 122 99 L 120 99 L 115 96 L 113 96 L 110 94 L 105 93 L 102 91 L 100 91 L 99 90 L 97 90 L 96 89 L 94 89 L 93 88 L 91 88 L 90 87 L 88 87 L 84 85 L 81 85 L 77 83 L 74 83 L 73 82 L 69 82 L 68 81 L 65 81 L 64 80 L 60 80 L 59 79 L 55 79 L 54 78 L 50 78 L 49 77 L 44 77 L 43 76 L 37 76 L 36 75 L 23 75 L 22 74 L 18 74 L 18 102 L 19 103 L 40 103 L 41 104 L 48 104 L 49 105 L 56 105 L 57 106 L 62 106 L 63 107 L 66 107 L 67 108 L 71 108 L 72 109 L 75 109 L 76 110 L 79 110 L 80 111 L 83 111 L 84 112 L 91 113 L 92 114 L 94 114 L 95 115 L 97 115 L 98 116 L 100 116 L 101 117 L 103 117 L 104 118 L 109 119 L 119 124 L 121 124 L 135 131 L 137 133 L 140 134 L 142 136 L 143 136 L 145 138 L 149 140 L 154 145 L 155 145 L 166 157 L 166 158 L 170 163 L 172 167 L 172 169 L 173 170 L 172 172 L 166 166 L 165 166 L 158 160 L 157 160 L 149 154 L 146 153 L 144 151 L 141 150 L 139 148 L 117 137 L 115 137 L 107 133 L 102 132 L 99 130 L 97 130 L 96 129 L 94 129 L 90 127 L 87 127 L 83 125 L 80 125 L 76 123 L 72 123 L 71 122 L 68 122 L 67 121 L 63 121 L 62 120 L 58 120 L 57 119 L 52 119 L 51 118 L 46 118 L 45 117 L 35 117 L 34 116 L 20 116 L 21 118 L 21 124 L 22 125 L 22 128 L 23 129 L 23 133 L 24 134 L 24 137 L 25 138 L 25 142 L 26 143 L 26 145 L 28 144 L 34 144 L 35 143 L 62 143 L 63 144 L 70 144 L 71 145 L 77 145 L 78 146 L 82 146 L 83 147 L 86 147 L 87 148 L 94 149 L 95 150 L 97 150 L 98 151 L 100 151 L 104 153 L 107 153 L 110 155 L 112 155 L 130 164 L 132 166 L 133 166 L 135 168 L 139 170 L 142 173 L 143 173 L 153 183 L 153 184 L 157 188 L 158 191 L 160 193 L 162 197 L 161 199 L 154 192 L 153 192 L 150 189 L 149 189 L 141 183 L 138 182 L 136 180 L 122 173 L 120 173 L 115 170 L 113 170 L 112 169 L 110 169 L 109 168 L 107 168 L 106 167 L 104 167 L 100 165 L 97 165 L 96 164 L 93 164 L 92 163 L 89 163 L 88 162 L 85 162 L 84 161 L 80 161 L 79 160 L 73 160 L 72 159 L 63 159 L 62 158 L 34 158 L 33 159 L 30 159 L 31 160 L 31 163 L 32 164 L 32 166 L 33 167 L 33 169 L 34 170 L 34 172 L 35 173 L 35 175 L 36 176 L 36 178 L 37 179 L 37 181 L 38 183 L 42 183 L 43 182 L 46 182 L 47 181 L 54 181 L 55 180 L 81 180 L 82 181 L 89 181 L 90 182 L 95 182 L 96 183 L 100 183 L 101 184 L 108 185 L 114 188 L 116 188 L 122 191 L 124 193 L 129 195 L 131 197 L 132 197 L 135 200 L 136 200 L 146 210 L 146 211 L 149 215 L 148 217 L 137 209 L 127 204 L 125 204 L 122 202 L 120 202 L 119 201 L 117 201 L 113 199 L 106 198 L 105 197 L 101 197 L 100 196 L 95 196 L 94 195 L 88 195 L 87 194 L 70 194 L 69 193 L 67 193 L 66 194 L 52 194 L 51 195 L 47 195 L 46 196 L 44 196 L 44 198 L 47 203 L 47 205 L 51 212 L 51 214 L 53 218 L 56 218 L 57 217 L 62 217 L 63 216 L 68 216 L 69 215 L 97 215 L 98 216 L 107 217 L 108 218 L 111 218 L 114 220 L 116 220 L 121 223 L 123 223 L 125 225 L 126 225 L 128 227 L 132 229 L 142 239 L 140 240 L 131 235 L 129 235 L 123 232 L 120 232 L 119 231 L 116 231 L 115 230 L 112 230 L 111 229 L 106 229 L 105 228 L 99 228 L 98 227 L 74 227 L 73 228 L 68 228 L 67 229 L 64 229 L 63 230 L 70 237 L 71 237 L 76 242 L 77 242 L 82 246 L 98 254 L 100 254 L 103 256 L 105 256 L 106 257 L 109 257 L 112 259 L 115 259 L 119 261 L 122 261 L 123 262 L 127 262 L 129 264 L 128 265 L 113 265 L 112 264 L 102 264 L 101 263 L 96 263 L 95 262 L 88 261 L 87 260 L 85 260 L 84 259 L 82 259 L 81 258 L 76 257 L 71 254 L 69 254 L 67 253 L 65 251 L 63 251 L 59 249 L 56 246 L 55 246 L 56 247 L 57 252 L 63 264 L 65 266 L 68 272 L 72 276 L 72 277 L 83 288 L 84 288 L 87 291 L 89 292 L 89 294 L 87 296 L 87 297 L 80 304 L 79 304 L 76 307 L 74 308 L 140 308 L 141 309 L 142 308 L 143 309 L 268 309 L 269 308 L 274 308 L 275 307 L 279 307 L 280 306 L 283 306 L 284 305 L 286 305 L 287 304 L 292 303 L 300 299 L 302 297 L 308 294 L 314 288 L 315 288 L 324 278 L 324 277 L 326 275 L 331 265 L 331 263 L 332 262 L 332 260 L 334 256 L 334 251 L 335 250 L 335 232 L 334 231 L 334 226 L 333 225 L 333 222 L 332 221 L 332 219 L 331 218 L 330 213 L 328 210 L 328 208 L 323 198 L 321 196 L 320 193 L 318 191 L 318 190 L 316 188 L 314 184 L 306 175 L 306 174 L 268 136 L 268 135 L 258 124 L 258 123 L 254 118 L 253 115 L 251 113 L 246 103 L 246 101 L 245 100 L 245 98 L 243 94 L 243 91 L 242 90 L 242 85 L 241 84 L 241 76 L 242 75 L 242 72 L 244 68 L 246 66 L 252 66 L 256 68 L 258 70 L 259 70 L 270 78 L 274 80 L 279 80 L 283 76 L 284 74 L 284 72 L 285 71 L 285 61 L 284 60 L 284 58 L 283 56 L 277 49 L 278 47 L 280 48 L 283 48 L 286 50 L 288 50 L 298 55 L 301 58 L 301 55 L 300 54 L 300 49 L 299 48 L 299 46 L 298 45 L 297 40 L 294 36 L 294 35 L 292 33 L 292 32 Z"/>
  </g>
</svg>
